<svg id="Layer_1" data-name="Layer 1" xmlns="http://www.w3.org/2000/svg" viewBox="0 0 893.70387 894.04724"><defs><style>.cls-1{fill:#fff;stroke:#5e5a5a;stroke-miterlimit:10;stroke-width:0.75px;}</style></defs><path class="cls-1" d="M65.52307,484.08124c2.24584-16.35634,3.94917-32.80876,6.826-49.05334C90.31845,333.56069,138.0963,248.374,214.43237,179.52774,282.32559,118.296,362.0459,80.97416,452.72431,69.42441c124.4464-15.8508,237.31393,14.48419,335.85343,92.38082,93.97769,74.29039,151.077,171.67384,165.83909,290.62346,19.48907,157.0374-31.3463,289.8126-149.01478,395.70354-66.332,59.69273-145.12538,94.12331-233.471,106.5917-10.58729,1.49416-21.22586,2.6254-31.84063,3.92469H484.259c-10.89681-1.34625-21.819-2.51423-32.6864-4.0667-88.90245-12.70016-167.487-48.27524-234.61335-107.92836C139.427,777.75306,90.954,692.07665,72.48042,589.81372c-2.98317-16.51368-4.67084-33.26148-6.95735-49.901ZM93.44162,511.4979C93.24494,742.27319,281.18764,930.5657,511.897,930.732c230.36157.16607,418.56916-187.50859,419.00939-417.823.44125-230.822-187.31254-419.30493-418.02393-419.64722C282.1022,92.9194,93.63817,280.84212,93.44162,511.4979Z" transform="translate(-65.14807 -64.97638)"/><path class="cls-1" d="M170.59053,617.30842c1.43437-68.33868,15.95549-144.60379,46.2472-217.53159,11.31132-27.23222,25.94069-52.65592,47.90588-73.15584,24.30247-22.68129,53.468-30.92873,85.45062-25.7376A871.29044,871.29044,0,0,1,441.132,320.7538c48.85707,13.41544,96.89447,12.11141,145.583-.87156a788.51216,788.51216,0,0,1,90.40154-18.77474c41.64025-6.0029,74.42088,11.25745,99.25809,44.36059,25.98624,34.63457,41.06941,74.32409,52.31084,115.60745,16.66836,61.21321,27.03276,123.32569,24.28352,187.07024-.83683,19.40391-3.51353,38.5775-12.364,56.20785-8.343,16.6195-21.13554,22.60977-39.31644,19.44811-22.79169-3.96346-42.65119-14.79332-60.67579-28.28255-23.28694-17.42748-45.82582-35.9703-67.63318-55.22608a185.19794,185.19794,0,0,0-71.90434-39.88929C536.20189,581.665,471.61464,582.75615,407.696,605.367a179.32244,179.32244,0,0,0-60.2,35.72041c-24.84535,22.19366-49.53377,44.76956-78.63162,61.30382A199.47549,199.47549,0,0,1,224.6,721.23845c-21.88089,6.11826-37.276-3.733-45.05506-25.34322C171.60188,673.82964,170.63886,650.90848,170.59053,617.30842ZM441.55366,463.02336c.52314-26.05942-18.25917-49.80269-43.46823-54.39668-4.68331-.85344-6.22762-2.74177-7.15213-7.31854-5.14347-25.46256-28.28773-43.98768-53.64264-43.452-26.2108.55372-48.23228,18.76442-52.9267,44.34456-.88719,4.83429-3.42461,5.589-7.31978,6.33926-16.00982,3.08365-28.48234,11.69871-36.64216,25.72738-19.06318,32.7742-.43319,73.50882,36.76236,80.91449,3.34706.66644,6.21334.70839,7.085,5.515,4.76931,26.30015,26.75029,44.797,52.89416,45.08644,25.30585.28017,48.59794-18.367,53.72945-43.59712.94678-4.65511,2.70032-6.247,7.18569-7.14334A54.09673,54.09673,0,0,0,441.55366,463.02336ZM674.95453,362.64692a32.58464,32.58464,0,1,0,32.806,32.35654A32.27646,32.27646,0,0,0,674.95453,362.64692ZM607.88438,494.4206a32.66077,32.66077,0,1,0-32.01406-33.37211C575.26647,478.80248,589.804,493.95669,607.88438,494.4206Zm101.1322-32.86529A32.70912,32.70912,0,1,0,741.9497,429.0945,32.66793,32.66793,0,0,0,709.01658,461.55531Zm-1.249,66.50577c-.115-18.00514-15.0183-32.75285-32.874-32.53071a32.74859,32.74859,0,0,0-32.30222,33.09082c.11718,18.01621,15.01655,32.77059,32.86305,32.54326A32.79844,32.79844,0,0,0,707.7676,528.06108Z" transform="translate(-65.14807 -64.97638)"/><path class="cls-1" d="M407.8095,461.88509c-.03661,10.16961-6.45,17.86353-16.5542,19.13936-5.31181.67072-10.74917.27418-16.10553.68017-11.00444.83411-17.346,7.57629-17.64316,18.5231-.1128,4.1561.17663,8.34182-.208,12.46831-1.07909,11.57629-9.26749,18.66184-20.69776,18.20971-10.84567-.429-18.19872-8.14934-18.56855-19.60728-.12621-3.91058.10609-7.83481-.07658-11.741-.55554-11.87947-7.7848-18.81262-19.67983-18.99667-4.158-.06433-8.33291.16254-12.47248-.13194-10.45-.74334-17.99233-8.50955-18.22248-18.48728-.23789-10.3133,6.42359-18.07424,17.10343-19.40115,4.34468-.53982,8.7931-.19987,13.18978-.37429,13.18148-.52281,20.00426-7.62586,20.11587-20.87955.02883-3.42481-.08571-6.854.04589-10.2742.42084-10.93742,7.57848-18.5609,18.12848-19.42151,10.31265-.84124,18.31711,5.16778,20.32212,15.88355.8892,4.75235.82364,9.70277.975,14.57.40007,12.86466,7.34282,19.89425,20.08911,20.13151,3.913.07283,7.83563-.09083,11.74014.11446C400.36816,442.87279,407.8492,450.8567,407.8095,461.88509Z" transform="translate(-65.14807 -64.97638)"/></svg>