<svg id="sign-in" data-name="Layer 1" xmlns="http://www.w3.org/2000/svg" viewBox="0 0 892.95387 893.29724"><defs><style>.cls-1{fill:#fff;}</style></defs><path class="cls-1" d="M65.52307,484.08124c2.24584-16.35634,3.94917-32.80876,6.826-49.05334C90.31845,333.56069,138.0963,248.374,214.43237,179.52774,282.32559,118.296,362.0459,80.97416,452.72431,69.42441c124.4464-15.8508,237.31393,14.48419,335.85343,92.38082,93.97769,74.29039,151.077,171.67384,165.83909,290.62346,19.48907,157.0374-31.3463,289.8126-149.01478,395.70354-66.332,59.69273-145.12538,94.12331-233.471,106.5917-10.58729,1.49416-21.22586,2.6254-31.84063,3.92469H484.259c-10.89681-1.34625-21.819-2.51423-32.6864-4.0667-88.90245-12.70016-167.487-48.27524-234.61335-107.92836C139.427,777.75306,90.954,692.07665,72.48042,589.81372c-2.98317-16.51368-4.67084-33.26148-6.95735-49.901ZM93.44162,511.4979C93.24494,742.27319,281.18764,930.5657,511.897,930.732c230.36157.16607,418.56916-187.50859,419.00939-417.823.44125-230.822-187.31254-419.30493-418.02393-419.64722C282.1022,92.9194,93.63817,280.84212,93.44162,511.4979Z" transform="translate(-65.52307 -65.35138)"/><path class="cls-1" d="M309.30985,767.47393c-9.61539-2.51943-19.08682-5.22279-27.37284-11.1812a61.60615,61.60615,0,0,1-23.78756-63.85894c9.5678-42.12429,27.93823-79.85207,55.84038-112.77571a255.64778,255.64778,0,0,1,110.57932-76.64091c1.69977-.609,3.39379-1.2339,5.75656-2.09379-39.90839-33.07511-58.85989-74.73216-52.79634-126.18027,4.19165-35.56535,20.9105-65.01481,48.628-87.59495,55.96931-45.59545,134.06261-38.63327,182.7813,9.98888,48.84174,48.74494,58.5653,146.49374-15.15028,203.67257,6.16675,2.39972,12.28038,4.49745,18.15369,7.13127,8.47886,3.80229,16.931,7.71666,25.12539,12.088,10.5008,5.6017,14.04625,17.25022,8.76819,27.19915-5.1692,9.74378-16.62162,13.524-26.99754,8.07887-19.5337-10.25083-39.821-18.30286-61.46249-22.721-50.31582-10.27188-98.546-4.06931-144.38065,19.104-42.73648,21.60692-74.9328,54.04576-96.99969,96.49651a209.17087,209.17087,0,0,0-19.20285,54.84388,20.18084,20.18084,0,0,0,16.46635,23.96126,44.97175,44.97175,0,0,0,7.93947.531q74.59894.04423,149.19789-.019c6.44287-.00957,12.22,1.38952,16.83059,6.07895a19.88443,19.88443,0,0,1-5.73765,31.90709c-1.4794.70707-3.00145,1.325-4.50372,1.98424Zm298.40677-375.1053c.15662-52.70072-42.94212-95.96-95.69189-96.0484-52.68957-.08826-95.89273,43.08264-95.90563,95.834-.0127,51.91886,42.88359,95.62914,93.94662,95.72938C564.37537,487.99022,607.558,445.75215,607.71662,392.36863Z" transform="translate(-65.52307 -65.35138)"/><path class="cls-1" d="M589.76719,767.47393c-8.49605-2.63172-17.421-4.34077-25.413-8.05673-32.524-15.12222-50.244-50.24855-44.22564-86.27885,5.65062-33.829,33.96083-61.01118,68.31422-65.45059a110.69,110.69,0,0,1,13.91555-.87818q50.65068-.10854,101.3017-.03909h6.33842c-1.634-1.83709-2.61-3.04572-3.69969-4.14129-6.56811-6.60384-13.44664-12.92541-19.67266-19.83593-7.11277-7.89481-6.61394-19.18769.52958-26.71358,7.11749-7.49848,18.9292-8.93777,26.57742-1.68228,15.30684,14.52083,30.51569,29.2702,44.33834,45.16621,5.16542,5.94021,6.35154,15.34195,9.35206,23.16535v9.98242c-2.09148,10.36351-5.328,20.26781-12.9449,28.00049-13.17741,13.37783-26.42409,26.69208-39.87791,39.79024-4.65323,4.53023-10.66976,6.0162-17.11831,4.577-15.3977-3.43651-21.06477-21.36171-10.26453-33.17208,6.8358-7.47508,14.29016-14.38356,21.44188-21.57121.94309-.94783,1.73693-2.04416,3.03423-3.58889-38.291,0-75.68227-.31427-113.06416.14181-16.93013.20657-29.622,8.79145-36.32254,24.372-6.60526,15.35886-4.00065,30.01,6.93357,42.77119,7.92388,9.24784,18.44064,13.03788,30.44125,13.63278,8.38073.41547,14.46725,4.79532,17.56355,12.62183,3.02631,7.64958,1.64763,14.95626-4.09547,20.74019-2.797,2.81691-6.89754,4.339-10.408,6.4472Z" transform="translate(-65.52307 -65.35138)"/></svg>