<svg id="Layer_1" data-name="Layer 1" xmlns="http://www.w3.org/2000/svg" viewBox="0 0 892.95387 893.29724"><defs><style>.cls-1{fill:#fff;}</style></defs><path class="cls-1" d="M65.52307,484.08124c2.24584-16.35634,3.94917-32.80876,6.826-49.05334C90.31845,333.56069,138.0963,248.374,214.43237,179.52774,282.32559,118.296,362.0459,80.97416,452.72431,69.42441c124.4464-15.8508,237.31393,14.48419,335.85343,92.38082,93.97769,74.29039,151.077,171.67384,165.83909,290.62346,19.48907,157.0374-31.3463,289.8126-149.01478,395.70354-66.332,59.69273-145.12538,94.12331-233.471,106.5917-10.58729,1.49416-21.22586,2.6254-31.84063,3.92469H484.259c-10.89681-1.34625-21.819-2.51423-32.6864-4.0667-88.90245-12.70016-167.487-48.27524-234.61335-107.92836C139.427,777.75306,90.954,692.07665,72.48042,589.81372c-2.98317-16.51368-4.67084-33.26148-6.95735-49.901ZM93.44162,511.4979C93.24494,742.27319,281.18764,930.5657,511.897,930.732c230.36157.16607,418.56916-187.50859,419.00939-417.823.44125-230.822-187.31254-419.30493-418.02393-419.64722C282.1022,92.9194,93.63817,280.84212,93.44162,511.4979Z" transform="translate(-65.52307 -65.35138)"/><path class="cls-1" d="M211.21019,604.77921c1.26371-60.208,14.05716-127.39936,40.74487-191.65047,9.96554-23.99223,22.85436-46.39112,42.20622-64.452,21.41105-19.98275,47.10661-27.24894,75.284-22.67543a767.62626,767.62626,0,0,1,80.11831,17.5063c43.04423,11.81932,85.36632,10.67044,128.26209-.76787a694.69587,694.69587,0,0,1,79.64589-16.541c36.686-5.2887,65.56656,9.91807,87.44873,39.08272,22.89449,30.51388,36.18312,65.48128,46.08708,101.8529,14.68522,53.93028,23.8165,108.65284,21.39435,164.8133-.73726,17.0953-3.0955,33.98769-10.893,49.52044-7.35039,14.64218-18.6209,19.91975-34.63871,17.13424-20.08-3.49189-37.57671-13.03325-53.45681-24.91759-20.51634-15.354-40.37363-31.69068-59.58642-48.65548a163.16391,163.16391,0,0,0-63.34943-35.14341c-57.15495-16.50938-114.05784-15.548-170.37163,4.37264A157.98728,157.98728,0,0,0,367.06811,625.729c-21.88935,19.55315-43.64042,39.443-69.27632,54.01012a175.7428,175.7428,0,0,1-38.998,16.60488c-19.27758,5.39033-32.841-3.2889-39.69457-22.328C212.10121,654.57574,211.25277,634.38165,211.21019,604.77921ZM449.93511,468.85042c.4609-22.959-16.08676-43.87735-38.29654-47.92475-4.1261-.75191-5.48668-2.41557-6.3012-6.44782-4.53151-22.43311-24.92216-38.75418-47.26043-38.28227-23.09234.48784-42.49377,16.5319-46.62967,39.06861-.78164,4.25912-3.01717,4.92405-6.4489,5.585-14.105,2.71677-25.09362,10.30685-32.28261,22.66644-16.79511,28.87484-.38165,64.763,32.38851,71.28758,2.94884.58714,5.4741.6241,6.24205,4.85888,4.20187,23.17105,23.56763,39.46719,46.601,39.72221,22.29505.24684,42.81593-16.18172,47.33691-38.41009.83414-4.10126,2.37905-5.50374,6.33076-6.29345A47.66051,47.66051,0,0,0,449.93511,468.85042Zm205.63168-88.434a28.70784,28.70784,0,1,0,28.90284,28.50688A28.43631,28.43631,0,0,0,655.56679,380.41641ZM596.47641,496.51213a28.77491,28.77491,0,1,0-28.20515-29.40161C567.73925,482.7522,580.54714,496.10342,596.47641,496.51213Zm89.09985-28.9551a28.8175,28.8175,0,1,0,29.01486-28.59873A28.78122,28.78122,0,0,0,685.57626,467.557Zm-1.10038,58.59316a28.71267,28.71267,0,1,0-28.46862,29.16486A28.89819,28.89819,0,0,0,684.47588,526.15019Z" transform="translate(-65.52307 -65.35138)"/><path class="cls-1" d="M420.20571,467.84758c-.03225,8.95967-5.68263,15.73819-14.58464,16.86223-4.67983.59092-9.47028.24156-14.18936.59924-9.69517.73488-15.28226,6.67489-15.544,16.31929-.09939,3.66162.15561,7.34935-.18326,10.98488-.9507,10.199-8.16487,16.44152-18.23522,16.04319-9.55529-.378-16.0335-7.17977-16.35933-17.27448-.11119-3.44532.09347-6.90265-.06747-10.34414-.48944-10.46609-6.85859-16.57436-17.33839-16.73651-3.66329-.05668-7.34149.1432-10.98855-.11625-9.20674-.65489-15.85167-7.49711-16.05444-16.28772-.20958-9.08627,5.65934-15.92384,15.06853-17.09288,3.82777-.47559,7.74692-.17608,11.62051-.32976,11.61319-.46061,17.62422-6.71856,17.72255-18.39537.02541-3.01734-.07551-6.03851.04044-9.05182.37076-9.63612,6.67681-16.35259,15.97161-17.1108,9.08569-.74116,16.13781,4.55293,17.90427,13.99378.78341,4.18693.72564,8.54836.859,12.8365.35247,11.33407,6.4692,17.5273,17.699,17.73633,3.44749.06417,6.90338-.08,10.34334.10085C413.64971,451.09729,420.24069,458.13131,420.20571,467.84758Z" transform="translate(-65.52307 -65.35138)"/></svg>