<?xml version="1.0" encoding="utf-8"?>
<!-- Generator: Adobe Illustrator 23.0.5, SVG Export Plug-In . SVG Version: 6.00 Build 0)  -->
<svg version="1.1" id="gaming-console-clipart" xmlns="http://www.w3.org/2000/svg" xmlns:xlink="http://www.w3.org/1999/xlink" x="0px" y="0px"
	 viewBox="0 0 654 683.8" style="enable-background:new 0 0 654 683.8;" xml:space="preserve">
<style type="text/css">
	
		.st0{opacity:0.41;stroke:#000000;stroke-width:10;stroke-linecap:round;stroke-linejoin:round;stroke-miterlimit:10;enable-background:new    ;}
	
		.st1{opacity:0.41;fill:none;stroke:#000000;stroke-width:10;stroke-linecap:round;stroke-linejoin:round;stroke-miterlimit:10;enable-background:new    ;}
	.st2{fill:none;stroke:#663C3B;stroke-width:10;stroke-linejoin:round;stroke-miterlimit:10;}
	.st3{fill:#663C3B;}
	.st4{fill:#FEC556;}
	.st5{fill:#F29940;}
	.st6{fill:#835559;}
	.st7{fill:#95676B;}
	.st8{fill:none;stroke:#663C3B;stroke-width:6;stroke-linecap:round;stroke-linejoin:round;stroke-miterlimit:10;}
	.st9{fill:none;stroke:#663C3B;stroke-width:3;stroke-linecap:round;stroke-linejoin:round;stroke-miterlimit:10;}
	.st10{fill:none;stroke:#663C3B;stroke-width:8;stroke-linecap:round;stroke-linejoin:round;stroke-miterlimit:10;}
	.st11{opacity:0.17;enable-background:new    ;}
	.st12{fill:#32B94D;}
	.st13{fill:none;stroke:#663C3B;stroke-width:2;stroke-linecap:round;stroke-linejoin:round;stroke-miterlimit:10;}
	.st14{fill:#8BD8F5;}
	.st15{fill:#FEF585;}
	.st16{fill:#E7503B;}
</style>
<path id="XMLID_20_" class="st0" d="M517,414.8H137c-72.9,0-132,59.1-132,132s59.1,132,132,132c51.3,0,95.8-29.3,117.6-72h144.8
	c21.8,42.7,66.3,72,117.6,72c72.9,0,132-59.1,132-132S589.9,414.8,517,414.8z"/>
<path id="XMLID_19_" class="st1" d="M327,382.5V263.1c0-13.7-11.1-24.8-24.8-24.8H114.7c-13.7,0-24.8-11.1-24.8-24.8l0,0
	c0-13.7,11.1-24.8,24.8-24.8h397.5c13.7,0,24.8-11.1,24.8-24.8l0,0c0-13.7-11.1-24.8-24.8-24.8H351.7c-13.7,0-24.8-11.1-24.8-24.8V9
	"/>
<path id="XMLID_43_" class="st2" d="M327,369.2V249.8c0-13.7-11.1-24.8-24.8-24.8H114.7c-13.7,0-24.8-11.1-24.8-24.8l0,0
	c0-13.7,11.1-24.8,24.8-24.8h397.5c13.7,0,24.8-11.1,24.8-24.8l0,0c0-13.7-11.1-24.8-24.8-24.8H351.7c-13.7,0-24.8-11.1-24.8-24.8V0
	"/>
<rect id="XMLID_37_" x="298" y="379" class="st3" width="58" height="12.5"/>
<rect id="XMLID_41_" x="306.2" y="372.8" class="st3" width="41.5" height="9.8"/>
<rect id="XMLID_54_" x="311.7" y="366.5" class="st3" width="30.5" height="9.4"/>
<path id="XMLID_44_" class="st4" d="M517,391.8H137c-72.9,0-132,59.1-132,132s59.1,132,132,132c51.3,0,95.8-29.3,117.6-72h144.8
	c21.8,42.7,66.3,72,117.6,72c72.9,0,132-59.1,132-132S589.9,391.8,517,391.8z"/>
<path id="XMLID_74_" class="st5" d="M306.4,443.6h-28c-2.2,0-4-1.8-4-4l0,0c0-2.2,1.8-4,4-4h28c2.2,0,4,1.8,4,4l0,0
	C310.4,441.8,308.7,443.6,306.4,443.6z"/>
<path id="XMLID_73_" class="st5" d="M385.1,443.9h-56.9c-2.2,0-4-1.8-4-4l0,0c0-2.2,1.8-4,4-4h56.9c2.2,0,4,1.8,4,4l0,0
	C389.1,442.1,387.4,443.9,385.1,443.9z"/>
<path id="XMLID_71_" class="st5" d="M385.1,460.4H278.3c-2.2,0-4-1.8-4-4l0,0c0-2.2,1.8-4,4-4h106.8c2.2,0,4,1.8,4,4l0,0
	C389.1,458.6,387.3,460.4,385.1,460.4z"/>
<path id="XMLID_67_" class="st5" d="M277.1,542.7L277.1,542.7c-3.5-3.5-3.5-9.2,0-12.7l29.7-29.7c3.5-3.5,9.2-3.5,12.7,0l0,0
	c3.5,3.5,3.5,9.2,0,12.7l-29.7,29.7C286.3,546.2,280.6,546.2,277.1,542.7z"/>
<path id="XMLID_56_" class="st5" d="M344.1,542.7L344.1,542.7c-3.5-3.5-3.5-9.2,0-12.7l29.7-29.7c3.5-3.5,9.2-3.5,12.7,0l0,0
	c3.5,3.5,3.5,9.2,0,12.7l-29.7,29.7C353.3,546.2,347.6,546.2,344.1,542.7z"/>
<path id="XMLID_53_" class="st5" d="M137,403.3h380c71.3,0,129.4,55.6,131.9,125.1c0.1-1.6,0.1-3.1,0.1-4.7c0-72.9-59.1-132-132-132
	H137c-72.9,0-132,59.1-132,132c0,1.6,0,3.1,0.1,4.7C7.5,458.9,65.6,403.3,137,403.3z"/>
<path id="XMLID_52_" class="st5" d="M517,638.8c-51.3,0-92.8-21.3-114.6-64H251.6c-21.8,42.7-63.3,64-114.6,64
	c-70,0-127.3-54.6-131.7-123.5c-0.2,2.8-0.3,5.6-0.3,8.5c0,72.9,59.1,132,132,132c51.3,0,95.8-29.3,117.6-72h144.8
	c21.8,42.7,66.3,72,117.6,72c72.9,0,132-59.1,132-132c0-2.9-0.1-5.7-0.3-8.5C644.3,584.2,587,638.8,517,638.8z"/>
<circle id="XMLID_48_" class="st5" cx="137.5" cy="531" r="85"/>
<circle id="XMLID_46_" class="st6" cx="137.5" cy="523.8" r="84"/>
<circle id="XMLID_50_" class="st7" cx="137.5" cy="523.8" r="71"/>
<path id="XMLID_6_" class="st3" d="M187.9,507.8h-34.4v-34.4c0-2.5-2.1-4.6-4.6-4.6h-22.8c-2.5,0-4.6,2.1-4.6,4.6v34.4H87.1
	c-2.5,0-4.6,2.1-4.6,4.6v22.8c0,2.5,2.1,4.6,4.6,4.6h34.4v34.4c0,2.5,2.1,4.6,4.6,4.6h22.8c2.5,0,4.6-2.1,4.6-4.6v-34.4h34.4
	c2.5,0,4.6-2.1,4.6-4.6v-22.8C192.5,509.8,190.4,507.8,187.9,507.8z"/>
<circle id="XMLID_7_" class="st8" cx="137.5" cy="523.8" r="84"/>
<circle id="XMLID_51_" class="st5" cx="517.5" cy="531" r="85"/>
<circle id="XMLID_49_" class="st6" cx="517.5" cy="523.8" r="84"/>
<circle id="XMLID_66_" class="st7" cx="517.5" cy="523.8" r="71"/>
<circle id="XMLID_16_" class="st8" cx="517.5" cy="523.8" r="84"/>
<path id="XMLID_10_" class="st4" d="M131,487.2l5.5-9.6c0.4-0.7,1.4-0.7,1.8,0l5.5,9.6c0.4,0.7-0.1,1.6-0.9,1.6h-11.1
	C131.1,488.8,130.6,487.9,131,487.2z"/>
<path id="XMLID_12_" class="st4" d="M131,560.4l5.5,9.6c0.4,0.7,1.4,0.7,1.8,0l5.5-9.6c0.4-0.7-0.1-1.6-0.9-1.6h-11.1
	C131.1,558.8,130.6,559.7,131,560.4z"/>
<path id="XMLID_55_" class="st9" d="M187.9,507.8h-34.4v-34.4c0-2.5-2.1-4.6-4.6-4.6h-22.8c-2.5,0-4.6,2.1-4.6,4.6v34.4H87.1
	c-2.5,0-4.6,2.1-4.6,4.6v22.8c0,2.5,2.1,4.6,4.6,4.6h34.4v34.4c0,2.5,2.1,4.6,4.6,4.6h22.8c2.5,0,4.6-2.1,4.6-4.6v-34.4h34.4
	c2.5,0,4.6-2.1,4.6-4.6v-22.8C192.5,509.8,190.4,507.8,187.9,507.8z"/>
<path id="XMLID_11_" class="st4" d="M172.3,517.3l9.6,5.5c0.7,0.4,0.7,1.4,0,1.8l-9.6,5.5c-0.7,0.4-1.6-0.1-1.6-0.9v-11.1
	C170.7,517.4,171.6,516.9,172.3,517.3z"/>
<path id="XMLID_9_" class="st4" d="M100.9,517.3l-9.6,5.5c-0.7,0.4-0.7,1.4,0,1.8l9.6,5.5c0.7,0.4,1.6-0.1,1.6-0.9v-11.1
	C102.5,517.4,101.6,516.9,100.9,517.3z"/>
<path id="XMLID_45_" class="st10" d="M426.7,385.8h90.8c19.5,0,38.1,4.1,55,11.4"/>
<path id="XMLID_36_" class="st10" d="M82.5,397.2c16.9-7.4,35.5-11.4,55-11.4h89.2"/>
<path id="XMLID_32_" class="st8" d="M517,391.8H137c-72.9,0-132,59.1-132,132s59.1,132,132,132c51.3,0,95.8-29.3,117.6-72h144.8
	c21.8,42.7,66.3,72,117.6,72c72.9,0,132-59.1,132-132S589.9,391.8,517,391.8z"/>
<path id="XMLID_65_" class="st11" d="M531,511.5l-39.6,39.6c-8.6,8.6-22.5,8.6-31.1,0l0,0c-8.6-8.6-8.6-22.5,0-31.1l39.6-39.6
	c8.6-8.6,22.5-8.6,31.1,0l0,0C539.6,488.9,539.6,502.9,531,511.5z"/>
<path id="XMLID_59_" class="st4" d="M529,507.5l-39.6,39.6c-8.6,8.6-22.5,8.6-31.1,0l0,0c-8.6-8.6-8.6-22.5,0-31.1l39.6-39.6
	c8.6-8.6,22.5-8.6,31.1,0l0,0C537.6,484.9,537.6,498.9,529,507.5z"/>
<path id="XMLID_2_" class="st9" d="M529,507.5l-39.6,39.6c-8.6,8.6-22.5,8.6-31.1,0l0,0c-8.6-8.6-8.6-22.5,0-31.1l39.6-39.6
	c8.6-8.6,22.5-8.6,31.1,0l0,0C537.6,484.9,537.6,498.9,529,507.5z"/>
<circle id="XMLID_63_" class="st12" cx="473.9" cy="531.5" r="14"/>
<path id="XMLID_8_" class="st13" d="M464.9,530.7c0.4-5,4.8-8.6,9.8-8.2"/>
<circle id="XMLID_18_" class="st9" cx="473.9" cy="531.5" r="14"/>
<circle id="XMLID_62_" class="st14" cx="513.5" cy="491.9" r="14"/>
<path id="XMLID_13_" class="st13" d="M504.5,491.9c0-5,4-9,9-9"/>
<circle id="XMLID_17_" class="st9" cx="513.5" cy="491.9" r="14"/>
<path id="XMLID_64_" class="st11" d="M577.6,537.7L538,577.3c-8.6,8.6-22.5,8.6-31.1,0l0,0c-8.6-8.6-8.6-22.5,0-31.1l39.6-39.6
	c8.6-8.6,22.5-8.6,31.1,0l0,0C586.2,515.2,586.2,529.1,577.6,537.7z"/>
<path id="XMLID_57_" class="st4" d="M576.6,532.7L537,572.3c-8.6,8.6-22.5,8.6-31.1,0l0,0c-8.6-8.6-8.6-22.5,0-31.1l39.6-39.6
	c8.6-8.6,22.5-8.6,31.1,0l0,0C585.2,510.2,585.2,524.1,576.6,532.7z"/>
<path id="XMLID_35_" class="st9" d="M576.6,532.7L537,572.3c-8.6,8.6-22.5,8.6-31.1,0l0,0c-8.6-8.6-8.6-22.5,0-31.1l39.6-39.6
	c8.6-8.6,22.5-8.6,31.1,0l0,0C585.2,510.2,585.2,524.1,576.6,532.7z"/>
<circle id="XMLID_61_" class="st15" cx="521.5" cy="556.8" r="14"/>
<path id="XMLID_15_" class="st13" d="M512.5,556.8c0-5,4-9,9-9"/>
<circle id="XMLID_34_" class="st9" cx="521.5" cy="556.8" r="14"/>
<circle id="XMLID_33_" class="st16" cx="561.1" cy="517.2" r="14"/>
<path id="XMLID_70_" class="st13" d="M552.1,517.2c0-5,4-9,9-9"/>
<circle id="XMLID_60_" class="st9" cx="561.1" cy="517.2" r="14"/>
<path id="XMLID_14_" class="st3" d="M277.1,538.7L277.1,538.7c-3.5-3.5-3.5-9.2,0-12.7l29.7-29.7c3.5-3.5,9.2-3.5,12.7,0l0,0
	c3.5,3.5,3.5,9.2,0,12.7l-29.7,29.7C286.3,542.2,280.6,542.2,277.1,538.7z"/>
<path id="XMLID_38_" class="st3" d="M344.1,538.7L344.1,538.7c-3.5-3.5-3.5-9.2,0-12.7l29.7-29.7c3.5-3.5,9.2-3.5,12.7,0l0,0
	c3.5,3.5,3.5,9.2,0,12.7l-29.7,29.7C353.3,542.2,347.6,542.2,344.1,538.7z"/>
<circle id="XMLID_58_" class="st4" cx="137.5" cy="523.8" r="16"/>
<path id="XMLID_72_" class="st5" d="M137.5,536.5c-8.1,0-15.1-6.4-15.9-14.4c-0.1,0.5-0.1,1.1-0.1,1.6c0,8.7,7.3,16,16,16
	s16-7.3,16-16c0-0.6,0-1.1-0.1-1.6C152.5,530.1,145.6,536.5,137.5,536.5z"/>
<path id="XMLID_68_" class="st13" d="M125.5,523.8c0-6.5,5.5-12,12-12"/>
</svg>
