<svg id="Layer_1" data-name="Layer 1" xmlns="http://www.w3.org/2000/svg" viewBox="0 0 892.95387 893.29724"><defs><style>.cls-1{fill:#fff;}</style></defs><path class="cls-1" d="M65.52307,484.08124c2.24584-16.35634,3.94917-32.80876,6.826-49.05334C90.31845,333.56069,138.0963,248.374,214.43237,179.52774,282.32559,118.296,362.0459,80.97416,452.72431,69.42441c124.4464-15.8508,237.31393,14.48419,335.85343,92.38082,93.97769,74.29039,151.077,171.67384,165.83909,290.62346,19.48907,157.0374-31.3463,289.8126-149.01478,395.70354-66.332,59.69273-145.12538,94.12331-233.471,106.5917-10.58729,1.49416-21.22586,2.6254-31.84063,3.92469H484.259c-10.89681-1.34625-21.819-2.51423-32.6864-4.0667-88.90245-12.70016-167.487-48.27524-234.61335-107.92836C139.427,777.75306,90.954,692.07665,72.48042,589.81372c-2.98317-16.51368-4.67084-33.26148-6.95735-49.901ZM93.44162,511.4979C93.24494,742.27319,281.18764,930.5657,511.897,930.732c230.36157.16607,418.56916-187.50859,419.00939-417.823.44125-230.822-187.31254-419.30493-418.02393-419.64722C282.1022,92.9194,93.63817,280.84212,93.44162,511.4979Z" transform="translate(-65.52307 -65.35138)"/><path class="cls-1" d="M547.05693,821.79618h-70.1945a13.68038,13.68038,0,0,0-2.17679-.99121c-17.26175-4.52427-27.31214-15.73976-29.98123-33.21925-2.15875-14.13728-3.79206-28.36153-5.3276-42.58293-.44823-4.15133-1.946-6.28771-5.99683-7.74443-8.69924-3.12829-17.24957-6.72977-25.65532-10.5855-3.35055-1.53689-5.628-1.56947-8.597.8137q-16.50654,13.24959-33.40239,26.01311c-17.81559,13.53351-37.70789,12.30939-53.52839-3.297q-19.38288-19.12065-38.511-38.49909c-15.65559-15.84057-16.84389-35.711-3.24478-53.48423,8.69838-11.36822,17.64351-22.55018,26.18014-34.03694a8.29376,8.29376,0,0,0,.87971-6.75846c-3.54507-9.40818-7.39713-18.71768-11.618-27.84129a9.092,9.092,0,0,0-5.81442-4.6051c-13.74875-2.05222-27.56647-3.65625-41.37648-5.28036-10.83593-1.2743-20.66709-5.01205-27.17081-13.952-4.03691-5.5492-6.31689-12.376-9.38548-18.62939V475.723a9.29084,9.29084,0,0,0,1.149-1.95929c5.025-17.0962,16.54368-26.729,34.01468-29.1858,13.76428-1.93557,27.56256-3.68839,41.39024-5.08059,4.49634-.45267,6.5578-2.19516,8.06918-6.40154,3.12464-8.69632,6.76247-17.22927,10.62671-25.62821,1.46174-3.17711,1.45521-5.26505-.7853-8.06142-8.947-11.16661-17.69967-22.49172-26.38343-33.86567-13.29439-17.413-12.05153-37.534,3.28449-53.03334q19.14444-19.34834,38.50077-38.4869c15.88141-15.75045,35.71127-17.14356,53.458-3.675q17.09787,12.97611,33.88054,26.36357c2.80386,2.24463,4.89088,2.2185,8.07082.769,8.59522-3.91781,17.353-7.51828,26.20877-10.80711,3.72785-1.38442,5.29968-3.34266,5.722-7.30205,1.47381-13.81875,3.26584-27.60495,5.04867-41.38909,2.84951-22.03146,18.41235-35.67091,40.71688-35.71817,18.55093-.0393,37.103-.12088,55.65281.02976,19.16031.15559,34.74557,12.923,37.8875,31.701,2.52432,15.08672,4.14568,30.32865,5.96626,45.52584.42877,3.5791,1.552,5.59236,5.2773,6.93763,9.07167,3.276,17.98655,7.04427,26.75543,11.06973,3.23131,1.48339,5.34006,1.3,8.07039-.88072,11.02337-8.80446,22.19646-17.42269,33.36565-26.04317,17.59748-13.58194,37.6298-12.48456,53.51917,3.1095q19.42548,19.06441,38.50411,38.48138c15.87308,16.11571,16.98239,35.89012,3.12815,53.95947-8.462,11.03659-16.96233,22.04687-25.65011,32.90527-2.3101,2.88738-2.58611,5.134-.98274,8.57681,3.90277,8.3801,7.53493,16.92457,10.598,25.641,1.53139,4.35754,3.85664,5.74131,8.21,6.22374,14.81249,1.64147,29.6447,3.31909,44.33744,5.77268,18.89443,3.15526,31.7667,18.55071,31.96689,37.65407q.30414,29.02829.00384,58.062c-.19095,19.11309-13.04945,34.58409-31.8809,37.74809-14.69031,2.46825-29.51735,4.20713-44.33553,5.78169-4.73618.50321-6.88551,2.33608-8.44855,6.743-3.02164,8.5194-6.57557,16.87613-10.39439,25.07422-1.57781,3.38715-1.48965,5.64964.86393,8.58306,8.70258,10.84658,17.19668,21.86244,25.66167,32.89709,14.00016,18.25014,12.77828,37.985-3.44172,54.41817q-18.90765,19.15609-38.07738,38.05293c-15.84841,15.61354-35.83825,16.77432-53.50414,3.20156-11.18817-8.59584-22.34693-17.23241-33.39043-26.01226-2.67264-2.12482-4.78331-2.53364-8.06451-1.02087-8.76187,4.03945-17.70216,7.72738-26.72947,11.13691-3.23925,1.22338-4.92015,2.71164-5.29411,6.254-1.14185,10.81612-2.4838,21.6137-3.92024,32.39551-1.35159,10.14466-1.96887,20.45405-8.345,29.2736C566.03733,814.33849,557.13349,818.89953,547.05693,821.79618Zm-31.2504-438.83206c-69.90468-3.04467-129.71522,53.15984-132.91308,124.89963-3.12927,70.20071,52.967,129.88288,125.21171,133.2156,69.95545,3.22711,129.96716-53.43726,132.929-125.51446C643.90733,445.64585,587.66675,386.09394,515.80653,382.96412Z" transform="translate(-65.52307 -65.35138)"/></svg>