<svg id="sheet-clipart" data-name="Layer 1" xmlns="http://www.w3.org/2000/svg" viewBox="0 0 893.99942 710.10931"><defs></defs><path class="cls-1" d="M188.10533,453.85885a501.47438,501.47438,0,0,1,83.66532,53.16065c41.68214,32.904,76.485,71.58129,100.57182,119.26673A533.76524,533.76524,0,0,1,408.97542,721.503c.16348.57564.33557,1.14872.90666,3.1002,2.05572-9.0199,3.716-16.75731,5.58694-24.44341,17.4519-71.69229,50.65939-135.79595,93.944-195.05786,51.47449-70.47493,113.98893-129.53558,185.102-179.821A1104.04243,1104.04243,0,0,1,794.889,261.902c.18015-.5325.92531-.63322.96992-1.2693-.70123.174-1.4514-.06029-2.13554.25618-20.62466,7.05923-40.5,15.91137-60.13053,25.31914-68.22245,32.695-127.847,77.56463-182.63284,129.25014-26.32029,24.83092-51.16827,50.99994-73.09345,79.87723-24.15656,31.81615-41.347,66.56786-45.99481,107.88887A221.85943,221.85943,0,0,1,415.02824,561.864c-20.176-68.43569-13.55256-134.80342,15.41562-199.49089,20.091-44.86431,53.11592-77.9147,93.86936-104.14725a411.12642,411.12642,0,0,1,163.05767-61.336c50.53591-7.6401,101.20851-14.06064,152.10953-18.5128q57.20446-5.00352,114.67932-5.31464c1.48563-.007,2.97132-.00088,5.19992-.00088-4.26845,11.29652-8.27,22.16558-12.47081,32.95711a1520.77452,1520.77452,0,0,1-68.6797,150.49793c-30.94792,59.44712-73.71852,109.37078-124.5496,152.673-27.90038,23.76791-56.167,47.01531-87.85029,65.739A442.73058,442.73058,0,0,1,504.7069,632.07674c-10.032,1.504-20.12631,2.62214-30.21637,3.68646a5.36371,5.36371,0,0,0-4.9012,3.26058,361.83708,361.83708,0,0,0-33.54608,97.24353c-5.32621,28.23356-6.45763,56.82776-7.52018,85.43716-.69879,18.814-.73494,37.62369.09666,56.42732.12678,2.8666-.59245,3.66931-3.42809,3.73644-11.3123.26771-22.62659.6421-33.92293,1.28114-3.5393.20022-3.66062-1.18625-3.27312-3.9817,2.262-16.31873,4.59237-32.632,6.52479-48.99142,2.6341-22.29994,6.48243-44.53148,5.32279-67.121a244.268,244.268,0,0,0-29.04891-104.33959c-1.54288-2.8721-3.31791-3.77739-6.50807-4.00257-71.99843-5.0819-133.36306-33.729-185.08744-83.7186-27.344-26.427-48.781-57.04049-65.851-90.94281C99.72831,453.00235,84.1598,427.03618,67.8771,401.504c-.94653-1.48422-2.37338-2.76692-2.51685-5.04092,20.26515-3.23479,40.60338-4.58992,61.00678-5.69335,56.24437-3.04162,110.32666,6.48072,162.53722,27.18833,48.30386,19.15812,82.28614,53.57375,104.78477,99.78278,8.59822,17.65949,9.91079,36.82109,9.05239,56.11762a275.75417,275.75417,0,0,1-8.68116,57.126c-.40523,1.56155-.85271,3.11211-1.52178,5.54477a263.49583,263.49583,0,0,0-11.79211-29.91593c-11.84132-24.64571-28.47907-45.57084-48.60559-63.99253-41.68773-38.15648-88.828-67.59254-140.94324-89.22058a15.555,15.555,0,0,0-1.9045-.52759,29.42341,29.42341,0,0,1-7.03324-2.42957c-.57741-.23568-1.18881-.39318-1.75029-.67908.49372.48892,1.21125.4629,1.78595.77394C184.26689,451.58818,186.72448,451.78248,188.10533,453.85885Z" transform="translate(-65.36025 -173.05905)"/><path class="cls-2" d="M188.10533,453.85885a14.95514,14.95514,0,0,1-5.91562-3.13269l-.10287-.40008c2.72428-.063,4.98308,1.19125,7.20617,2.54657Q188.69918,453.3657,188.10533,453.85885Z" transform="translate(-65.36025 -173.05905)"/><path class="cls-3" d="M793.72342,260.88884c1.25728-.5411,2.51462-1.0822,4.04529-1.74093-.30585,2.23321-1.74651,2.3007-2.87967,2.754Z" transform="translate(-65.36025 -173.05905)"/><path class="cls-4" d="M182.08684,450.32608l.10282.40014a6.05309,6.05309,0,0,1-4.97814-2.37552C179.43835,448.11878,181.00451,448.57146,182.08684,450.32608Z" transform="translate(-65.36025 -173.05905)"/></svg>